# AST/ASF file generated using VICON BodyLanguage
# -----------------------------------------------
:version 1.10
:name VICON
:units
  mass 1.0
  length 0.45
  angle deg
:documentation
   .ast/.asf automatically generated from VICON data using
   VICON BodyBuilder and BodyLanguage model FoxedUp or BRILLIANT.MOD
:root
   order TX TY TZ RX RY RZ
   axis XYZ
   position 0 0 0  
   orientation 0 0 0 
:bonedata
  begin
     id 1 
     name lhipjoint
     direction 0.734343 -0.627749 0.258209 
     length 2.5437 
     axis 0 0 0  XYZ
  end
  begin
     id 2 
     name lfemur
     direction 0.34202 -0.939693 0  
     length 6.7391  
     axis 0 0 20  XYZ
    dof rx ry rz
    limits (-160.0 20.0)
           (-70.0 70.0)
           (-60.0 70.0)
  end
  begin
     id 3 
     name ltibia
     direction 0.34202 -0.939693 0   
     length 7.21536   
     axis 0 0 20   XYZ
    dof rx
    limits (-10.0 170.0)
  end
  begin
     id 4 
     name lfoot
     direction 0.0489572 -0.134509 0.989702   
     length 1.61313   
     axis -90 7.62852e-016 20   XYZ
    dof rx rz
    limits (-45.0 90.0)
           (-70.0 20.0)
  end
  begin
     id 5 
     name ltoes
     direction 1.53451e-011 -4.21692e-011 1   
     length 0.823104   
     axis -90 7.62852e-016 20   XYZ
    dof rx
    limits (-90.0 20.0)
  end
  begin
     id 6 
     name rhipjoint
     direction -0.746398 -0.615468 0.253157   
     length 2.59446  
     axis 0 0 0  XYZ 
  end
  begin
     id 7 
     name rfemur
     direction -0.34202 -0.939693 0   
     length 6.7075   
     axis 0 0 -20   XYZ
    dof rx ry rz
    limits (-160.0 20.0)
           (-70.0 70.0)
           (-70.0 60.0)
  end
  begin
     id 8 
     name rtibia
     direction -0.34202 -0.939693 0   
     length 7.27262   
     axis 0 0 -20   XYZ
    dof rx
    limits (-10.0 170.0)
 end
 begin
     id 9 
     name rfoot
     direction -0.0455203 -0.125066 0.991104   
     length 1.91095  
     axis -90 -7.62852e-016 -20   XYZ
    dof rx rz
    limits (-45.0 90.0)
           (-20.0 70.0)
  end
  begin
     id 10 
     name rtoes
     direction -1.53601e-011 -4.21913e-011 1   
     length 0.969037   
     axis -90 -7.62852e-016 -20   XYZ
    dof rx
    limits (-90.0 20.0)
  end
  begin
     id 11 
     name lowerback
     direction 0.0181546 0.999122 -0.0377542   
     length 1.99916   
     axis 0 0 0   XYZ
    dof rx ry rz
    limits (-20.0 45.0)
           (-30.0 30.0)
           (-30.0 30.0)
  end
  begin
     id 12 
     name upperback
     direction 0.0203486 0.99589 0.0882534   
     length 1.951   
     axis 0 0 0   XYZ
    dof rx ry rz
    limits (-20.0 45.0)
           (-30.0 30.0)
           (-30.0 30.0)
  end
  begin
     id 13 
     name thorax
     direction 0.0131685 0.994241 0.106355   
     length 1.97461   
     axis 0 0 0   XYZ
    dof rx ry rz
    limits (-20.0 45.0)
           (-30.0 30.0)
           (-30.0 30.0)
  end
  begin
     id 14 
     name lowerneck
     direction -0.0281395 0.999325 0.023617   
     length 1.7959   
     axis 0 0 0   XYZ
    dof rx ry rz
    limits (-20.0 45.0)
           (-30.0 30.0)
           (-30.0 30.0)
  end
  begin
     id 15 
     name upperneck
     direction 0.0288721 0.991984 -0.123019   
     length 1.79917   
     axis 0 0 0   XYZ
    dof rx ry rz
    limits (-20.0 45.0)
           (-30.0 30.0)
           (-30.0 30.0)
  end
  begin
     id 16
     name head
     direction 0.0133797 0.998944 -0.0439492  
     length 1.80902  
     axis 0 0 0   XYZ
    dof rx ry rz
    limits (-20.0 45.0)
           (-30.0 30.0)
           (-30.0 30.0)
  end
  begin
     id 17 
     name lclavicle
     direction 0.919195 0.377107 0.113449  
     length 3.17815  
     axis 0 0 0   XYZ
    dof ry rz
    limits (-20.0 10.0)
           (0.0 20.0)
  end
  begin
     id 18 
     name lhumerus
     direction 1 -4.48959e-011 2.13129e-027   
     length 4.84137   
     axis 180 -30 -90   XYZ
    dof rx ry rz
    limits (-60.0 90.0)
           (-90.0 90.0)
           (-90.0 90.0)
  end
  begin
     id 19
     name lradius
     direction 1 -4.48957e-011 -6.30627e-028   
     length 3.2452   
     axis 180 -30 -90   XYZ
    dof rx
    limits (-10.0 170.0)
  end
  begin
     id 20
     name lwrist
     direction 1 -4.4901e-011 9.13299e-027   
     length 1.6226   
     axis -6.84618e-015 90 90   XYZ
    dof ry
    limits (-180.0 0.0)
 end
  begin
     id 21 
     name lhand
     direction 1 -4.48816e-011 1.82293e-026   
     length 0.521221   
     axis -1.16502e-014 90 90   XYZ
    dof rx rz
    limits (-90.0 90.0)
           (-45.0 45.0)
  end
  begin
     id 22 
     name lfingers
     direction 1 -4.49108e-011 3.65687e-026   
     length 0.420221   
     axis -2.33008e-014 90 90   XYZ
    dof rx
    limits (0.0 90.0)
  end
  begin
     id 23
     name lthumb
     direction 0.707107 -6.34943e-011 0.707107   
     length 0.603356   
     axis -90 45 5.69224e-014   XYZ
    dof rx rz
    limits (-45.0 45.0)
           (-45.0 45.0)
  end
  begin
     id 24 
     name rclavicle
     direction -0.90847 0.38596 0.160368   
     length 3.12973  
     axis 0 0 0   XYZ 
    dof ry rz
    limits (-10.0 20.0)
           (-20.0 0.0)
  end
  begin
     id 25 
     name rhumerus
     direction -1 -4.48974e-011 4.47268e-028  
     length 4.72284   
     axis 180 30 90   XYZ
    dof rx ry rz
    limits (-90.0 60.0)
           (-90.0 90.0)
           (-90.0 90.0)
  end
  begin
     id 26 
     name rradius
     direction -1 -4.48969e-011 3.43203e-027   
     length 3.23459   
     axis 180 30 90   XYZ
    dof rx
    limits (-10.0 170.0)
  end
  begin
     id 27 
     name rwrist
     direction -1 -4.48969e-011 9.12911e-027   
     length 1.6173   
     axis -6.84618e-015 -90 -90   XYZ
    dof ry
    limits (-180.0 0.0)
  end
  begin
     id 28
     name rhand
     direction -1 -4.49194e-011 1.83006e-026   
     length 0.307416   
     axis -1.16502e-014 -90 -90   XYZ
    dof rx rz
    limits (-90.0 90.0)
           (-45.0 45.0)
  end
  begin
     id 29
     name rfingers
     direction -1 -4.48423e-011 3.63103e-026   
     length 0.247847   
     axis -2.33008e-014 -90 -90   XYZ
    dof rx
    limits (0.0 90.0)
  end
  begin
     id 30
     name rthumb
     direction -0.707107 -6.34802e-011 0.707107   
     length 0.35586   
     axis -90 -45 -5.69224e-014   XYZ
    dof rx rz
    limits (-45.0 45.0)
           (-45.0 45.0)
  end
:hierarchy
  begin
    root lhipjoint rhipjoint lowerback
    lhipjoint lfemur
    lfemur ltibia
    ltibia lfoot
    lfoot ltoes
    rhipjoint rfemur
    rfemur rtibia
    rtibia rfoot
    rfoot rtoes
    lowerback upperback
    upperback thorax
    thorax lowerneck lclavicle rclavicle
    lowerneck upperneck
    upperneck head
    lclavicle lhumerus
    lhumerus lradius
    lradius lwrist
    lwrist lhand lthumb
    lhand lfingers
    rclavicle rhumerus
    rhumerus rradius
    rradius rwrist
    rwrist rhand rthumb
    rhand rfingers
  end

#!OML:ASF \\Waltz\H\Terrain\Patient Classification 1\Animal1\Tuesday\Animal1.ASF
:FULLY-SPECIFIED
:DEGREES
1420
root 8.87251 15.3918 -4.87291 34.3024 -37.5784 1.76449
lowerback 30.0405 -0.134742 -1.32313
upperback 0.467795 -0.547023 0.893315
thorax -15.3442 -0.134121 1.9273
lowerneck 1.79493 0.626177 -7.75908
upperneck -8.68285 1.08116 7.77955
head -2.94249 0.488385 3.59866
rclavicle 6.86801e-014 -4.75095e-014
rhumerus -59.4017 26.3569 -98.3909
rradius 32.8089
rwrist -2.91703
rhand -8.38442 32.8031
rfingers 7.12502
rthumb 17.5389 363.574
lclavicle 6.86801e-014 -4.75095e-014
lhumerus -51.4188 -8.38522 77.4842
lradius 41.7569
lwrist -23.4804
lhand 5.70713 -325.639
lfingers 7.12502
lthumb 31.0442 421.754
rfemur -57.3537 10.3573 8.70192
rtibia 69.9846
rfoot -11.1225 2.83464
rtoes -24.7486
lfemur -75.7923 -12.164 -10.3313
ltibia 48.6751
lfoot -8.6137 -1.26568
ltoes -1.15113
1421
root 8.86169 15.3924 -4.87663 34.3444 -37.574 1.82291
lowerback 29.7353 0.313555 -1.12538
upperback 0.361166 0.0453238 0.524298
thorax -15.3495 0.0966779 1.17726
lowerneck 2.0287 0.0922466 -6.4176
upperneck -8.4129 0.345946 7.21581
head -3.15373 0.114683 3.56799
rclavicle -3.18055e-015 9.93923e-016
rhumerus -59.6979 24.6364 -98.6789
rradius 33.541
rwrist -2.89096
rhand -10.2796 28.7768
rfingers 7.12502
rthumb 15.7144 359.395
lclavicle -3.18055e-015 9.93923e-016
lhumerus -50.9934 -10.3252 77.7482
lradius 41.5771
lwrist -23.1154
lhand 5.50933 -325.386
lfingers 7.12502
lthumb 30.8557 422.043
rfemur -57.456 10.4471 8.51283
rtibia 70.0685
rfoot -10.9719 3.61357
rtoes -20.5035
lfemur -75.8609 -12.0894 -10.3979
ltibia 48.6647
lfoot -8.54935 -1.35054
ltoes -0.795509
1422
root 8.85207 15.3858 -4.87411 34.1616 -37.6214 2.12206
lowerback 29.598 0.315239 -1.29072
upperback 0.305205 -0.0254787 0.400431
thorax -15.3489 0.0740746 1.16093
lowerneck 1.95879 0.0632524 -6.36232
upperneck -8.47008 0.318841 7.26932
head -3.15788 0.0982047 3.57743
rclavicle 1.07344e-014 3.69739e-014
rhumerus -59.2866 24.2043 -98.1102
rradius 32.7783
rwrist -2.39594
rhand -9.46635 31.9653
rfingers 7.12502
rthumb 16.4975 362.647
lclavicle 1.07344e-014 3.69739e-014
lhumerus -50.8636 -10.0507 77.5148
lradius 41.576
lwrist -23.3887
lhand 5.6714 -325.212
lfingers 7.12502
lthumb 31.0102 422.188
rfemur -57.4155 10.5293 8.15797
rtibia 70.1247
rfoot -10.8449 3.98722
rtoes -17.128
lfemur -75.8154 -12.1643 -10.6739
ltibia 48.6702
lfoot -8.6322 -1.29806
ltoes -1.95221
1423
root 8.84606 15.3715 -4.86984 34.1128 -37.512 2.23768
lowerback 29.4937 0.208197 -1.20039
upperback 0.188491 -0.136827 0.356059
thorax -15.4349 0.0197767 1.10784
lowerneck 1.82155 0.0646129 -6.48056
upperneck -8.31446 0.325397 7.39275
head -3.08174 0.103824 3.63925
rclavicle 2.78299e-014 3.51849e-014
rhumerus -59.1646 24.3693 -98.2041
rradius 32.2455
rwrist -2.11282
rhand -10.5809 32.3948
rfingers 7.12502
rthumb 15.4242 362.99
lclavicle 2.78299e-014 3.51849e-014
lhumerus -50.9627 -9.85478 77.4117
lradius 41.5799
lwrist -23.5223
lhand 5.8758 -325.239
lfingers 7.12502
lthumb 31.205 422.123
rfemur -57.3009 10.555 8.05492
rtibia 70.1339
rfoot -10.8946 4.08149
rtoes -15.5101
lfemur -75.8569 -12.2744 -10.7385
ltibia 48.7217
lfoot -8.72597 -1.17932
ltoes -3.19997
1424
root 8.84123 15.3637 -4.86906 34.1881 -37.381 2.31027
lowerback 29.3059 0.153915 -1.1284
upperback 0.0298949 -0.183975 0.316039
thorax -15.5332 -0.00450994 1.04377
lowerneck 1.63088 -0.0100809 -6.38792
upperneck -8.05111 0.231086 7.4396
head -2.94701 0.0560258 3.63247
rclavicle 4.59193e-014 2.0276e-014
rhumerus -59.2376 24.3296 -98.4038
rradius 32.2689
rwrist -2.05555
rhand -9.84147 32.6502
rfingers 7.12502
rthumb 16.1363 363.302
lclavicle 4.59193e-014 2.0276e-014
lhumerus -51.0576 -9.88127 77.3472
lradius 41.5126
lwrist -23.7578
lhand 6.34825 -325.996
lfingers 7.12502
lthumb 31.6551 421.279
rfemur -57.3162 10.4218 8.08036
rtibia 70.1013
rfoot -11.1494 3.65006
rtoes -18.8048
lfemur -76.0509 -12.3227 -10.7812
ltibia 48.8396
lfoot -8.80555 -1.12021
ltoes -5.09071
1425
root 8.83791 15.359 -4.8705 34.2829 -37.2897 2.34144
lowerback 29.1159 0.135838 -1.06957
upperback -0.106172 -0.191864 0.261202
thorax -15.6046 -0.012146 0.954803
lowerneck 1.55094 -0.0881641 -6.25431
upperneck -7.94392 0.136383 7.52136
head -2.88706 0.00346035 3.6347
rclavicle -4.01545e-014 6.24184e-014
rhumerus -59.1115 23.9452 -98.0573
rradius 31.9674
rwrist -1.70686
rhand -5.6304 37.6536
rfingers 7.12502
rthumb 20.1876 368.683
lclavicle -4.01545e-014 6.24184e-014
lhumerus -51.0383 -9.85213 77.1692
lradius 41.4035
lwrist -24.2809
lhand 7.24136 -326.931
lfingers 7.12502
lthumb 32.5054 420.172
rfemur -57.3812 10.3139 8.15339
rtibia 70.0467
rfoot -11.2617 3.18056
rtoes -21.3862
lfemur -76.2722 -12.3285 -10.7776
ltibia 49.0079
lfoot -8.90739 -1.13995
ltoes -6.69468
1426
root 8.83218 15.354 -4.86955 34.3021 -37.2737 2.18498
lowerback 29.1612 0.153977 -0.981879
upperback -0.180438 -0.141673 0.242866
thorax -15.7154 0.00369964 0.867047
lowerneck 1.42678 -0.101354 -6.24245
upperneck -7.90804 0.132909 7.65883
head -2.85251 -0.000931647 3.67909
rclavicle -1.02573e-013 4.21423e-014
rhumerus -59.1186 23.8892 -97.9856
rradius 32.2402
rwrist -2.16515
rhand -7.51909 31.678
rfingers 7.12502
rthumb 18.3715 362.526
lclavicle -1.02573e-013 4.21423e-014
lhumerus -51.0138 -9.89682 77.0794
lradius 41.3849
lwrist -24.4199
lhand 7.56163 -326.685
lfingers 7.12502
lthumb 32.8101 420.355
rfemur -57.2195 10.4361 8.33551
rtibia 69.9657
rfoot -11.3378 2.77877
rtoes -22.3406
lfemur -76.2709 -12.2876 -10.639
ltibia 49.1766
lfoot -9.05277 -1.08855
ltoes -6.61631
1427
root 8.82444 15.3543 -4.86646 34.1368 -37.094 2.03634
lowerback 29.4386 0.0556192 -0.82263
upperback -0.18735 -0.207904 0.306845
thorax -15.8535 -0.033871 0.877157
lowerneck 1.13684 -0.0579365 -6.31818
upperneck -7.94191 0.204727 7.67895
head -2.81627 0.0410845 3.69636
rclavicle 2.10712e-014 -4.42296e-014
rhumerus -59.2506 24.1742 -98.1251
rradius 32.3787
rwrist -1.97187
rhand -9.61323 30.1492
rfingers 7.12502
rthumb 16.3561 360.819
lclavicle 2.10712e-014 -4.42296e-014
lhumerus -50.9595 -9.64139 76.9882
lradius 41.3827
lwrist -24.4126
lhand 7.03326 -325.883
lfingers 7.12502
lthumb 32.3074 421.261
rfemur -56.7567 10.4833 8.69351
rtibia 69.872
rfoot -11.6308 1.78246
rtoes -26.3423
lfemur -76.0576 -12.3679 -10.5011
ltibia 49.3121
lfoot -9.20558 -1.11535
ltoes -5.45198
1428
root 8.8166 15.3534 -4.86548 34.0002 -36.9413 2.09973
lowerback 29.4544 -0.0203418 -0.848746
upperback -0.230663 -0.303243 0.375501
thorax -15.9102 -0.0691453 1.00549
lowerneck 1.0421 -0.0556827 -6.44728
upperneck -8.21508 0.219453 7.70025
head -2.89441 0.0518447 3.73343
rclavicle -9.81996e-014 1.98785e-016
rhumerus -59.2729 24.2085 -97.9973
rradius 32.5328
rwrist -1.73025
rhand -9.78571 30.4477
rfingers 7.12502
rthumb 16.19 361.104
lclavicle -9.81996e-014 1.98785e-016
lhumerus -50.8616 -9.32185 76.968
lradius 41.2366
lwrist -24.4934
lhand 6.62909 -325.577
lfingers 7.12502
lthumb 31.9226 421.645
rfemur -56.5284 10.4027 8.82658
rtibia 69.8403
rfoot -11.8454 1.43774
rtoes -27.7188
lfemur -75.9946 -12.4806 -10.5008
ltibia 49.4076
lfoot -9.25335 -1.21802
ltoes -3.95286
1429
root 8.80843 15.3523 -4.86418 34.0286 -37.1152 2.22024
lowerback 29.2309 0.162089 -1.22473
upperback -0.391872 -0.181878 0.423651
thorax -15.9978 0.0178289 1.21591
lowerneck 0.986261 -0.155983 -6.44957
upperneck -8.40934 0.0898896 7.6532
head -2.93897 -0.0115787 3.72356
rclavicle 2.22639e-014 5.34731e-014
rhumerus -59.2463 23.7177 -97.5165
rradius 32.623
rwrist -1.44968
rhand -9.16027 29.9827
rfingers 7.12502
rthumb 16.7922 360.689
lclavicle 2.22639e-014 5.34731e-014
lhumerus -50.9543 -9.39774 77.2171
lradius 41.1714
lwrist -24.3893
lhand 6.69966 -325.577
lfingers 7.12502
lthumb 31.9898 421.631
rfemur -56.6568 10.4884 8.61942
rtibia 69.8338
rfoot -11.8476 1.74029
rtoes -26.2614
lfemur -76.0611 -12.3842 -10.6767
ltibia 49.487
lfoot -9.30978 -1.1502
ltoes -5.09917
1430
root 8.79838 15.3499 -4.86168 34.072 -37.241 2.24344
lowerback 29.0648 0.215243 -1.2525
upperback -0.526878 -0.149606 0.237049
thorax -16.0802 0.0280124 1.01375
lowerneck 0.779665 -0.19973 -6.02854
upperneck -8.56076 0.0520442 7.53657
head -2.94295 -0.0386785 3.60118
rclavicle 6.59965e-014 -5.35725e-014
rhumerus -59.0331 22.9879 -97.31
rradius 32.3142
rwrist -0.82831
rhand -9.17895 30.2095
rfingers 7.12502
rthumb 16.7742 360.914
lclavicle 6.59965e-014 -5.35725e-014
lhumerus -51.0937 -9.6442 77.075
lradius 41.2475
lwrist -24.1503
lhand 6.86368 -325.599
lfingers 7.12502
lthumb 32.1459 421.578
rfemur -56.7215 10.5848 8.57455
rtibia 69.784
rfoot -11.7477 1.55763
rtoes -26.6051
lfemur -76.0907 -12.2702 -10.7858
ltibia 49.5603
lfoot -9.40814 -1.07166
ltoes -7.47495
1431
root 8.78981 15.3444 -4.85895 34.1779 -37.1396 2.13858
lowerback 29.025 0.218343 -1.1725
upperback -0.708836 -0.119164 0.218003
thorax -16.2793 0.0375699 0.937298
lowerneck 0.626111 -0.188347 -5.71285
upperneck -8.91955 0.0858062 7.37307
head -3.03443 -0.0275686 3.48681
rclavicle 7.45443e-014 -1.31198e-014
rhumerus -59.0981 22.661 -97.2905
rradius 32.0666
rwrist -0.4534
rhand -9.75375 30.5292
rfingers 7.12502
rthumb 16.2208 361.188
lclavicle 7.45443e-014 -1.31198e-014
lhumerus -51.2434 -9.81969 77.0807
lradius 41.2565
lwrist -23.9005
lhand 6.92665 -325.49
lfingers 7.12502
lthumb 32.2059 421.674
rfemur -56.7136 10.5155 8.84863
rtibia 69.72
rfoot -11.7716 0.901716
rtoes -29.3075
lfemur -76.1799 -12.2808 -10.627
ltibia 49.6313
lfoot -9.52573 -1.02874
ltoes -8.15456
